<svg xmlns="http://www.w3.org/2000/svg" xmlns:xlink="http://www.w3.org/1999/xlink" viewBox="0,0,256,256" width="50px" height="50px" fill-rule="nonzero"><g fill="#ffffff" fill-rule="nonzero" stroke="#ffffff" stroke-width="5.12" stroke-linecap="butt" stroke-linejoin="round" stroke-miterlimit="10" stroke-dasharray="" stroke-dashoffset="0" font-family="none" font-weight="none" font-size="none" text-anchor="none" style="mix-blend-mode: normal"><path d="M239.88,149.76c0.7,1.14 0.92,2.48 0.64,3.76l-18.14,83.1c-0.52,2.38 -2.62,4.02 -5,4.02c-0.28,0 -0.58,-0.02 -0.86,-0.08l-89.4,-15.36c-1.74,-0.3 -3.22,-1.48 -3.88,-3.14l-8.96,-22.38h-29.38c-1.3,0 -2.58,-0.5 -3.52,-1.42l-64.44,-61.44c-2.02,-1.92 -2.12,-5.12 -0.22,-7.18l61.44,-66.56c0.96,-1.04 2.34,-1.64 3.76,-1.64h27.26l8.94,-22.38c0.62,-1.54 1.94,-2.68 3.54,-3.08l84.06,-20.48c2.54,-0.62 5.16,0.8 6.04,3.3l28.6,81.92c0.44,1.26 0.36,2.66 -0.22,3.88l-14.44,24.46z" id="strokeMainSVG"></path></g><g fill="#000000" fill-rule="nonzero" stroke="none" stroke-width="1" stroke-linecap="butt" stroke-linejoin="miter" stroke-miterlimit="10" stroke-dasharray="" stroke-dashoffset="0" font-family="none" font-weight="none" font-size="none" text-anchor="none" style="mix-blend-mode: normal"><g transform="scale(5.12,5.12)"><path d="M44.08203,25.20703l2.82031,-4.77734c0.11328,-0.23828 0.12891,-0.51172 0.04297,-0.75781l-5.58594,-16c-0.17187,-0.48828 -0.68359,-0.76562 -1.17969,-0.64453l-16.41797,4c-0.3125,0.07813 -0.57031,0.30078 -0.69141,0.60156l-1.74609,4.37109h-5.32422c-0.27734,0 -0.54687,0.11719 -0.73437,0.32031l-12,13c-0.37109,0.40234 -0.35156,1.02734 0.04297,1.40234l12.58594,12c0.18359,0.17969 0.43359,0.27734 0.6875,0.27734h5.73828l1.75,4.37109c0.12891,0.32422 0.41797,0.55469 0.75781,0.61328l17.46094,3c0.05469,0.01172 0.11328,0.01563 0.16797,0.01563c0.46484,0 0.875,-0.32031 0.97656,-0.78516l3.54297,-16.23047c0.05469,-0.25 0.01172,-0.51172 -0.125,-0.73437zM21.32422,12l14.09375,-2.58203l-7.41797,14.58203h-16.83203zM22.32422,39l-11.15625,-11h16.83203l8.75,13.16797zM40.38672,38.89844l-8.38672,-12.89844l7.33203,-14.58203l4.75,13.79297z"></path></g></g></svg>